<?xml version="1.0" encoding="iso-8859-1"?>
<!-- Generator: Adobe Illustrator 19.0.0, SVG Export Plug-In . SVG Version: 6.00 Build 0)  -->
<svg version="1.1" id="Capa_1" xmlns="http://www.w3.org/2000/svg" xmlns:xlink="http://www.w3.org/1999/xlink" x="0px" y="0px"
	 viewBox="0 0 512 512" style="enable-background:new 0 0 512 512;" xml:space="preserve">
<g>
	<g>
		<path d="M344.768,287.224c-1.295-4.158-3.241-7.833-5.834-11.021c-2.593-3.186-5.754-5.726-9.482-7.618
			c-3.728-1.889-8.023-2.836-12.886-2.836c-5.08,0-9.482,1-13.21,2.999c-3.728,2-6.863,4.619-9.4,7.861
			c-2.54,3.242-4.432,6.944-5.673,11.103c-1.244,4.161-1.864,8.403-1.864,12.723c0,4.432,0.648,8.727,1.945,12.885
			c1.296,4.161,3.214,7.861,5.754,11.102c2.538,3.242,5.698,5.835,9.482,7.78c3.781,1.945,8.104,2.917,12.966,2.917
			c5.078,0,9.507-1.025,13.29-3.08c3.781-2.051,6.914-4.726,9.401-8.023c2.484-3.295,4.348-7.023,5.592-11.183
			c1.241-4.159,1.864-8.4,1.864-12.724C346.713,295.68,346.065,291.384,344.768,287.224z"/>
	</g>
</g>
<g>
	<g>
		<path d="M384.397,181.081c-6.544-27.372-21.433-52.232-42.789-71.072c-25.098-22.141-57.369-34.334-90.87-34.334
			c-75.774,0-137.421,61.647-137.421,137.421c0,1.176,0.015,2.353,0.045,3.53c-1.163-0.038-2.324-0.056-3.485-0.056
			C49.291,216.57,0,265.861,0,326.447s49.291,109.878,109.878,109.878h274.5c70.371,0,127.622-57.251,127.622-127.622
			C512,238.337,454.762,181.088,384.397,181.081z M246.144,343.385c-3.404,3.351-7.322,6.159-11.751,8.428
			c-4.432,2.269-9.132,3.999-14.101,5.187c-4.971,1.188-9.833,1.783-14.587,1.783c-8.322,0-15.965-1.702-22.935-5.105
			c-6.969-3.404-12.966-7.915-17.991-13.534c-5.025-5.617-8.915-11.994-11.67-19.125c-2.755-7.132-4.133-14.37-4.133-21.719
			c0-6.914,1.297-13.802,3.89-20.665c2.593-6.86,6.374-12.992,11.346-18.396c4.969-5.402,11.021-9.778,18.153-13.128
			c7.132-3.348,15.236-5.025,24.312-5.025c10.804,0,20.179,2.325,28.121,6.97c7.942,4.647,13.858,10.697,17.747,18.153
			l-20.422,14.263c-1.297-3.024-2.945-5.536-4.943-7.537c-2.001-1.998-4.189-3.619-6.564-4.862
			c-2.378-1.241-4.809-2.107-7.293-2.593c-2.487-0.486-4.919-0.729-7.294-0.729c-5.08,0-9.509,1.028-13.29,3.08
			c-3.783,2.054-6.916,4.7-9.4,7.942c-2.487,3.242-4.323,6.916-5.511,11.021c-1.191,4.107-1.783,8.266-1.783,12.48
			c0,4.538,0.702,8.915,2.107,13.129c1.403,4.214,3.429,7.942,6.078,11.184c2.647,3.242,5.835,5.81,9.563,7.699
			c3.728,1.892,7.914,2.836,12.561,2.836c2.376,0,4.835-0.296,7.375-0.891c2.538-0.593,4.969-1.512,7.294-2.755
			c2.322-1.241,4.457-2.862,6.402-4.863c1.945-1.998,3.51-4.457,4.7-7.375l21.719,12.804
			C252.112,336.254,249.547,340.037,246.144,343.385z M369.486,322.477c-2.864,7.025-6.835,13.21-11.913,18.558
			c-5.08,5.349-11.13,9.644-18.153,12.885c-7.025,3.242-14.696,4.863-23.016,4.863c-8.537,0-16.317-1.674-23.339-5.025
			c-7.025-3.348-13.022-7.752-17.991-13.21c-4.972-5.455-8.833-11.695-11.589-18.72c-2.755-7.023-4.133-14.263-4.133-21.719
			c0-7.562,1.431-14.855,4.295-21.881c2.862-7.023,6.86-13.21,11.994-18.558c5.131-5.349,11.209-9.616,18.234-12.804
			c7.022-3.186,14.693-4.782,23.015-4.782c8.535,0,16.315,1.677,23.34,5.025c7.022,3.35,13.02,7.78,17.991,13.291
			c4.969,5.511,8.806,11.778,11.508,18.801c2.7,7.025,4.052,14.157,4.052,21.395C373.781,308.16,372.348,315.454,369.486,322.477z
			 M373.994,378.865c0-2.382,0.177-4.511,0.532-6.386c0.354-1.875,0.962-3.586,1.824-5.132c0.861-1.545,2.027-2.977,3.498-4.295
			c1.47-1.317,3.319-2.61,5.55-3.877c2.382-1.317,4.372-2.407,5.968-3.27c1.596-0.861,2.863-1.621,3.801-2.281
			c0.938-0.658,1.608-1.254,2.015-1.787c0.405-0.532,0.608-1.152,0.608-1.863c0-1.418-0.507-2.559-1.521-3.421
			c-1.015-0.861-2.459-1.293-4.334-1.293c-2.128,0-3.98,0.521-5.55,1.559c-1.572,1.04-3.092,2.395-4.562,4.068l-7.755-8.972
			c0.811-0.912,1.901-1.798,3.27-2.661c1.368-0.861,2.914-1.635,4.638-2.319c1.723-0.685,3.611-1.228,5.664-1.635
			c2.053-0.405,4.193-0.608,6.424-0.608c5.474,0,9.668,1.191,12.583,3.573c2.914,2.383,4.372,5.602,4.372,9.656
			c0,1.673-0.266,3.168-0.798,4.486c-0.532,1.318-1.229,2.497-2.091,3.535c-0.862,1.04-1.825,1.952-2.889,2.737
			c-1.064,0.786-2.155,1.509-3.269,2.167c-0.76,0.457-1.673,0.989-2.737,1.597c-1.065,0.608-2.117,1.23-3.155,1.863
			c-1.039,0.634-2.003,1.268-2.889,1.901c-0.888,0.634-1.559,1.205-2.015,1.711h20.68v10.947H373.994z"/>
	</g>
</g>
<g>
</g>
<g>
</g>
<g>
</g>
<g>
</g>
<g>
</g>
<g>
</g>
<g>
</g>
<g>
</g>
<g>
</g>
<g>
</g>
<g>
</g>
<g>
</g>
<g>
</g>
<g>
</g>
<g>
</g>
</svg>
