<?xml version="1.0" encoding="iso-8859-1"?>
<!-- Generator: Adobe Illustrator 19.0.0, SVG Export Plug-In . SVG Version: 6.00 Build 0)  -->
<svg version="1.1" id="Capa_1" xmlns="http://www.w3.org/2000/svg" xmlns:xlink="http://www.w3.org/1999/xlink" x="0px" y="0px"
	 viewBox="0 0 512 512" style="enable-background:new 0 0 512 512;" xml:space="preserve">
<g>
	<g>
		<path d="M256,151.969c-109.843,0-195.017,120.962-195.017,225.019C60.983,498.009,172.292,512,256,512
			s195.017-13.99,195.017-135.012C451.017,272.931,365.843,151.969,256,151.969z M271.411,404.28
			c-0.135,0.049-0.275,0.026-0.41,0.073v17.638c0,8.292-6.71,15.001-15.001,15.001s-15.001-6.71-15.001-15.001v-17.742
			c-9.889-3.336-19.362-9.667-27.453-19.307c-5.332-6.344-4.512-15.807,1.846-21.14c6.329-5.332,15.792-4.526,21.125,1.831
			c29.578,35.328,49.544-18.649,19.484-18.649c-24.816,0-45.004-20.188-45.004-45.004c0-17.951,10.277-35.068,30.003-42.089v-17.917
			c0-8.292,6.71-15.001,15.001-15.001c8.292,0,15.001,6.71,15.001,15.001v17.966c7.767,2.617,15.34,6.774,22.092,13.311
			c5.948,5.771,6.124,15.265,0.352,21.213c-5.771,5.963-15.265,6.123-21.213,0.352c-27.596-26.658-46.235,22.165-16.231,22.165
			c24.816,0,45.004,20.188,45.004,45.004C301.004,380.826,289.108,397.835,271.411,404.28z"/>
	</g>
</g>
<g>
	<g>
		<path d="M341.554,12.086c-55.376-16.114-115.733-16.114-171.109,0c-9.292,2.689-13.728,13.478-8.731,22.004l22.69,40.62
			c39.454-15.699,97.974-18.043,143.186,0.007l22.694-40.627C355.281,25.564,350.845,14.776,341.554,12.086z"/>
	</g>
</g>
<g>
	<g>
		<path d="M325.652,107.406c-28.068-19.774-110.404-20.599-139.478,0.092c-12.465,8.799-19.101,22.623-18.972,37.064
			c28.806-15.26,62.582-22.595,88.798-22.595c31.931,0,61.842,8.314,88.8,22.595C344.924,130.649,338.741,116.636,325.652,107.406z"
			/>
	</g>
</g>
<g>
</g>
<g>
</g>
<g>
</g>
<g>
</g>
<g>
</g>
<g>
</g>
<g>
</g>
<g>
</g>
<g>
</g>
<g>
</g>
<g>
</g>
<g>
</g>
<g>
</g>
<g>
</g>
<g>
</g>
</svg>
